<svg width="512" height="512" viewBox="0 0 512 512" fill="none" xmlns="http://www.w3.org/2000/svg">
  <rect width="512" height="512" rx="116" fill="#F4F6F8"/>
  <path d="M118 253C118 172.366 183.366 107 264 107H295C350.781 107 396 152.219 396 208C396 263.781 350.781 309 295 309H260L196 365V309H174C143.072 309 118 283.928 118 253Z" fill="#1D2026"/>
  <path d="M177 243C177 200.474 211.474 166 254 166H294C323.823 166 348 190.177 348 220C348 249.823 323.823 274 294 274H263L225 306V274H208C190.879 274 177 260.121 177 243Z" fill="#F4F6F8"/>
  <path d="M174 382C204.891 350.517 246.981 333 291 333H302C329.062 333 351 354.938 351 382C351 409.062 329.062 431 302 431H236C203.406 431 178.406 411.75 174 382Z" fill="#E85D93"/>
  <path d="M161 155C182.539 123.562 218.419 105 257 105H280C239.5 125.5 212.5 157.5 201 202C186.5 191.5 173.167 175.833 161 155Z" fill="#E85D93"/>
  <circle cx="242" cy="221" r="14" fill="#1D2026"/>
  <circle cx="294" cy="221" r="14" fill="#1D2026"/>
  <path d="M241 260C256.5 273 280.5 273 296 260" stroke="#1D2026" stroke-width="14" stroke-linecap="round"/>
</svg>
